<svg width="50" height="50" viewBox="0 0 50 50" xmlns="http://www.w3.org/2000/svg">
  <circle cx="25" cy="25" r="24" stroke="white" stroke-width="2" fill="none" />
  <path d="M25 1 A24 24 0 0 1 49 25 A24 24 0 0 1 25 49 A24 24 0 0 1 1 25 A24 24 0 0 1 25 1" fill="none" stroke="white" stroke-width="2" />
  <path d="M25 10 L25 40" stroke="white" stroke-width="2" />
  <circle cx="25" cy="15" r="3" fill="white" />
  <circle cx="25" cy="25" r="3" fill="white" />
  <circle cx="25" cy="35" r="3" fill="white" />
  <path d="M25 15 L35 10" stroke="white" stroke-width="2" />
  <path d="M25 25 L35 20" stroke="white" stroke-width="2" />
  <path d="M25 35 L35 30" stroke="white" stroke-width="2" />
</svg>
